<svg width="736" height="137" viewBox="0 0 736 137" fill="none" xmlns="http://www.w3.org/2000/svg">
<path d="M364.455 34.1818H374.545L398.273 92.1364H399.091L422.818 34.1818H432.909V104H425V50.9545H424.318L402.5 104H394.864L373.045 50.9545H372.364V104H364.455V34.1818ZM462.843 105.091C458.115 105.091 453.968 103.966 450.399 101.716C446.854 99.4659 444.081 96.3182 442.081 92.2727C440.104 88.2273 439.115 83.5 439.115 78.0909C439.115 72.6364 440.104 67.875 442.081 63.8068C444.081 59.7386 446.854 56.5795 450.399 54.3295C453.968 52.0795 458.115 50.9545 462.843 50.9545C467.57 50.9545 471.706 52.0795 475.252 54.3295C478.82 56.5795 481.593 59.7386 483.57 63.8068C485.57 67.875 486.57 72.6364 486.57 78.0909C486.57 83.5 485.57 88.2273 483.57 92.2727C481.593 96.3182 478.82 99.4659 475.252 101.716C471.706 103.966 467.57 105.091 462.843 105.091ZM462.843 97.8636C466.434 97.8636 469.388 96.9432 471.706 95.1023C474.024 93.2614 475.74 90.8409 476.854 87.8409C477.968 84.8409 478.524 81.5909 478.524 78.0909C478.524 74.5909 477.968 71.3295 476.854 68.3068C475.74 65.2841 474.024 62.8409 471.706 60.9773C469.388 59.1136 466.434 58.1818 462.843 58.1818C459.252 58.1818 456.297 59.1136 453.979 60.9773C451.661 62.8409 449.945 65.2841 448.831 68.3068C447.718 71.3295 447.161 74.5909 447.161 78.0909C447.161 81.5909 447.718 84.8409 448.831 87.8409C449.945 90.8409 451.661 93.2614 453.979 95.1023C456.297 96.9432 459.252 97.8636 462.843 97.8636ZM491.651 104V51.6364H499.424V59.8182H500.106C501.197 57.0227 502.958 54.8523 505.39 53.3068C507.822 51.7386 510.742 50.9545 514.151 50.9545C517.606 50.9545 520.481 51.7386 522.776 53.3068C525.094 54.8523 526.901 57.0227 528.197 59.8182H528.742C530.083 57.1136 532.094 54.9659 534.776 53.375C537.458 51.7614 540.674 50.9545 544.424 50.9545C549.106 50.9545 552.935 52.4205 555.913 55.3523C558.89 58.2614 560.378 62.7955 560.378 68.9545V104H552.333V68.9545C552.333 65.0909 551.276 62.3295 549.163 60.6705C547.049 59.0114 544.56 58.1818 541.697 58.1818C538.015 58.1818 535.163 59.2955 533.14 61.5227C531.117 63.7273 530.106 66.5227 530.106 69.9091V104H521.924V68.1364C521.924 65.1591 520.958 62.7614 519.026 60.9432C517.094 59.1023 514.606 58.1818 511.56 58.1818C509.469 58.1818 507.515 58.7386 505.697 59.8523C503.901 60.9659 502.447 62.5114 501.333 64.4886C500.242 66.4432 499.697 68.7045 499.697 71.2727V104H491.651ZM589.843 105.091C584.798 105.091 580.445 103.977 576.786 101.75C573.15 99.5 570.343 96.3636 568.366 92.3409C566.411 88.2955 565.434 83.5909 565.434 78.2273C565.434 72.8636 566.411 68.1364 568.366 64.0455C570.343 59.9318 573.093 56.7273 576.616 54.4318C580.161 52.1136 584.298 50.9545 589.025 50.9545C591.752 50.9545 594.445 51.4091 597.105 52.3182C599.764 53.2273 602.184 54.7045 604.366 56.75C606.548 58.7727 608.286 61.4545 609.582 64.7955C610.877 68.1364 611.525 72.25 611.525 77.1364V80.5455H571.161V73.5909H603.343C603.343 70.6364 602.752 68 601.57 65.6818C600.411 63.3636 598.752 61.5341 596.593 60.1932C594.457 58.8523 591.934 58.1818 589.025 58.1818C585.82 58.1818 583.048 58.9773 580.707 60.5682C578.389 62.1364 576.605 64.1818 575.355 66.7045C574.105 69.2273 573.48 71.9318 573.48 74.8182V79.4545C573.48 83.4091 574.161 86.7614 575.525 89.5114C576.911 92.2386 578.832 94.3182 581.286 95.75C583.741 97.1591 586.593 97.8636 589.843 97.8636C591.957 97.8636 593.866 97.5682 595.57 96.9773C597.298 96.3636 598.786 95.4545 600.036 94.25C601.286 93.0227 602.252 91.5 602.934 89.6818L610.707 91.8636C609.889 94.5 608.514 96.8182 606.582 98.8182C604.65 100.795 602.264 102.341 599.423 103.455C596.582 104.545 593.389 105.091 589.843 105.091ZM624.609 72.5V104H616.564V51.6364H624.336V59.8182H625.018C626.245 57.1591 628.109 55.0227 630.609 53.4091C633.109 51.7727 636.336 50.9545 640.291 50.9545C643.836 50.9545 646.939 51.6818 649.598 53.1364C652.257 54.5682 654.325 56.75 655.802 59.6818C657.28 62.5909 658.018 66.2727 658.018 70.7273V104H649.973V71.2727C649.973 67.1591 648.905 63.9545 646.768 61.6591C644.632 59.3409 641.7 58.1818 637.973 58.1818C635.405 58.1818 633.109 58.7386 631.086 59.8523C629.086 60.9659 627.507 62.5909 626.348 64.7273C625.189 66.8636 624.609 69.4545 624.609 72.5ZM688.293 51.6364V58.4545H661.156V51.6364H688.293ZM669.065 39.0909H677.111V89C677.111 91.2727 677.44 92.9773 678.099 94.1136C678.781 95.2273 679.645 95.9773 680.69 96.3636C681.759 96.7273 682.884 96.9091 684.065 96.9091C684.952 96.9091 685.679 96.8636 686.247 96.7727C686.815 96.6591 687.27 96.5682 687.611 96.5L689.247 103.727C688.702 103.932 687.94 104.136 686.963 104.341C685.986 104.568 684.747 104.682 683.247 104.682C680.974 104.682 678.747 104.193 676.565 103.216C674.406 102.239 672.611 100.75 671.179 98.75C669.77 96.75 669.065 94.2273 669.065 91.1818V39.0909ZM729.348 63.3636L722.121 65.4091C721.666 64.2045 720.996 63.0341 720.11 61.8977C719.246 60.7386 718.064 59.7841 716.564 59.0341C715.064 58.2841 713.144 57.9091 710.803 57.9091C707.598 57.9091 704.928 58.6477 702.791 60.125C700.678 61.5795 699.621 63.4318 699.621 65.6818C699.621 67.6818 700.348 69.2614 701.803 70.4205C703.257 71.5795 705.53 72.5455 708.621 73.3182L716.394 75.2273C721.076 76.3636 724.564 78.1023 726.86 80.4432C729.155 82.7614 730.303 85.75 730.303 89.4091C730.303 92.4091 729.439 95.0909 727.712 97.4545C726.007 99.8182 723.621 101.682 720.553 103.045C717.485 104.409 713.916 105.091 709.848 105.091C704.507 105.091 700.087 103.932 696.587 101.614C693.087 99.2955 690.871 95.9091 689.939 91.4545L697.576 89.5455C698.303 92.3636 699.678 94.4773 701.701 95.8864C703.746 97.2955 706.416 98 709.712 98C713.462 98 716.439 97.2045 718.644 95.6136C720.871 94 721.985 92.0682 721.985 89.8182C721.985 88 721.348 86.4773 720.076 85.25C718.803 84 716.848 83.0682 714.212 82.4545L705.485 80.4091C700.689 79.2727 697.166 77.5114 694.916 75.125C692.689 72.7159 691.576 69.7045 691.576 66.0909C691.576 63.1364 692.405 60.5227 694.064 58.25C695.746 55.9773 698.03 54.1932 700.916 52.8977C703.826 51.6023 707.121 50.9545 710.803 50.9545C715.985 50.9545 720.053 52.0909 723.007 54.3636C725.985 56.6364 728.098 59.6364 729.348 63.3636Z" fill="black"/>
<path d="M255.183 0.0042815C235.187 0.0042815 216.397 6.46368 202.28 18.1967L165 49.1411L127.772 18.1925C113.639 6.4594 94.8544 0 74.8687 0C33.5723 0.00428058 0 27.8666 0 62.1112V74.846C0 109.103 33.5723 136.957 74.8172 136.957C94.8131 136.957 113.602 130.498 127.72 118.765L165 87.8803L202.244 118.808C216.377 130.541 235.161 137 255.147 137C296.433 136.979 330 109.112 330 74.8674V62.1326C330 27.8666 296.433 0.0042815 255.183 0.0042815ZM104.414 99.4379C96.5198 105.991 86.0114 109.604 74.8275 109.604C51.7687 109.583 33 94.0016 33 74.8674V62.1326C33 42.9899 51.7739 27.4043 74.8378 27.4043C86.0217 27.4043 96.525 31.0162 104.424 37.5707L141.668 68.4979L104.414 99.4379ZM297 74.8674C297 94.0101 278.226 109.596 255.162 109.596C243.978 109.596 233.475 105.984 225.576 99.4293L188.332 68.5021L225.576 37.5749C233.47 31.0214 243.978 27.4086 255.162 27.4086C278.231 27.3957 297 42.977 297 62.1112V74.8674Z" fill="url(#paint0_linear_2_4)"/>
<defs>
<linearGradient id="paint0_linear_2_4" x1="0" y1="68" x2="330" y2="68" gradientUnits="userSpaceOnUse">
<stop stop-color="#392EB3"/>
<stop offset="1" stop-color="#8479FF"/>
</linearGradient>
</defs>
</svg>
